<?xml version="1.0" encoding="UTF-8"?>
<!DOCTYPE svg PUBLIC "-//W3C//DTD SVG 1.1//EN" "http://www.w3.org/Graphics/SVG/1.1/DTD/svg11.dtd">
<svg version="1.2" viewBox="26706 808 2200 2200" preserveAspectRatio="xMidYMid" fill-rule="evenodd" stroke-width="28.222" stroke-linejoin="round" xmlns="http://www.w3.org/2000/svg" xmlns:ooo="http://xml.openoffice.org/svg/export" xmlns:xlink="http://www.w3.org/1999/xlink" xmlns:presentation="http://sun.com/xmlns/staroffice/presentation" xmlns:smil="http://www.w3.org/2001/SMIL20/" xmlns:anim="urn:oasis:names:tc:opendocument:xmlns:animation:1.0" xmlns:svg="urn:oasis:names:tc:opendocument:xmlns:svg-compatible:1.0" xml:space="preserve">
 <g class="Page">
  <g class="Group">
   <g class="com.sun.star.drawing.ClosedBezierShape">
    <g id="id3">
     <rect class="BoundingBox" stroke="none" fill="none" x="26706" y="808" width="2199" height="2198"/>
     <path fill="rgb(161,171,107)" stroke="none" d="M 27100,1064 C 27199,979 27322,909 27461,863 27599,817 27753,798 27903,813 27978,817 28053,834 28125,856 28198,878 28268,907 28330,941 28458,1011 28562,1099 28649,1202 28734,1306 28804,1425 28847,1562 28871,1630 28888,1705 28895,1780 28905,1852 28905,1929 28900,2004 28893,2079 28879,2154 28857,2226 28835,2299 28804,2369 28770,2432 28702,2560 28613,2664 28509,2750 28408,2835 28289,2903 28152,2948 28082,2973 28009,2987 27934,2997 27859,3006 27782,3006 27707,2999 27632,2994 27558,2980 27485,2958 27412,2934 27344,2905 27279,2871 27153,2801 27049,2714 26962,2610 26876,2507 26808,2388 26762,2253 26740,2183 26723,2110 26714,2036 26704,1961 26704,1883 26711,1809 26726,1659 26772,1509 26839,1384 26909,1256 27001,1147 27100,1064 Z"/>
    </g>
   </g>
   <g class="Group">
    <g class="com.sun.star.drawing.ClosedBezierShape">
     <g id="id4">
      <rect class="BoundingBox" stroke="none" fill="none" x="27377" y="1246" width="395" height="403"/>
      <path fill="rgb(255,255,255)" stroke="none" d="M 27765,1512 C 27756,1519 27746,1524 27736,1528 27695,1550 27657,1572 27617,1596 27598,1608 27576,1618 27557,1632 27552,1635 27544,1637 27540,1642 27530,1635 27518,1627 27508,1620 27482,1601 27455,1579 27433,1553 27419,1533 27404,1514 27397,1490 27388,1468 27383,1446 27383,1422 27383,1396 27390,1369 27402,1346 27419,1317 27448,1296 27479,1281 27503,1269 27528,1262 27554,1257 27578,1255 27605,1252 27630,1252 27619,1262 27612,1272 27605,1284 27595,1303 27590,1322 27590,1344 27588,1364 27593,1386 27602,1403 27615,1420 27637,1434 27657,1449 27686,1468 27715,1483 27741,1500 27751,1504 27758,1507 27765,1512 Z"/>
      <path fill="none" stroke="rgb(255,255,255)" stroke-width="11" stroke-linejoin="round" stroke-linecap="round" d="M 27765,1512 C 27756,1519 27746,1524 27736,1528 27695,1550 27657,1572 27617,1596 27598,1608 27576,1618 27557,1632 27552,1635 27544,1637 27540,1642 27530,1635 27518,1627 27508,1620 27482,1601 27455,1579 27433,1553 27419,1533 27404,1514 27397,1490 27388,1468 27383,1446 27383,1422 27383,1396 27390,1369 27402,1346 27419,1317 27448,1296 27479,1281 27503,1269 27528,1262 27554,1257 27578,1255 27605,1252 27630,1252 27619,1262 27612,1272 27605,1284 27595,1303 27590,1322 27590,1344 27588,1364 27593,1386 27602,1403 27615,1420 27637,1434 27657,1449 27686,1468 27715,1483 27741,1500 27751,1504 27758,1507 27765,1512 Z"/>
     </g>
    </g>
    <g class="com.sun.star.drawing.ClosedBezierShape">
     <g id="id5">
      <rect class="BoundingBox" stroke="none" fill="none" x="27378" y="1246" width="856" height="891"/>
      <path fill="rgb(255,255,255)" stroke="none" d="M 27619,1896 C 27646,1881 27677,1862 27704,1847 27769,1811 27815,1784 27863,1758 27912,1731 27962,1702 28020,1671 28047,1656 28073,1640 28100,1620 28129,1601 28155,1579 28176,1553 28193,1533 28205,1514 28214,1490 28222,1468 28227,1446 28227,1422 28227,1396 28222,1369 28207,1347 28190,1318 28163,1296 28131,1281 28107,1269 28081,1262 28054,1257 28030,1255 28006,1252 27982,1252 27991,1262 27999,1272 28003,1284 28013,1303 28020,1323 28020,1345 28020,1364 28015,1386 28006,1403 27994,1420 27974,1434 27955,1449 27924,1468 27897,1483 27868,1500 27817,1526 27769,1555 27721,1582 27696,1595 27671,1610 27646,1624 27623,1638 27599,1652 27576,1666 27542,1688 27506,1710 27474,1736 27448,1760 27426,1784 27409,1813 27395,1838 27388,1867 27385,1896 27383,1922 27385,1951 27392,1975 27402,1999 27414,2021 27431,2040 27455,2074 27487,2103 27530,2130 L 27532,2130 C 27566,2110 27600,2091 27634,2074 27668,2055 27701,2038 27738,2019 27743,2016 27750,2011 27755,2009 27728,1992 27709,1982 27689,1968 27677,1961 27665,1954 27653,1944 27641,1937 27629,1927 27619,1920 L 27615,1915 C 27612,1912 27612,1910 27612,1908 27615,1903 27617,1898 27619,1896 Z"/>
      <path fill="none" stroke="rgb(255,255,255)" stroke-width="11" stroke-linejoin="round" stroke-linecap="round" d="M 27619,1896 C 27646,1881 27677,1862 27704,1847 27769,1811 27815,1784 27863,1758 27912,1731 27962,1702 28020,1671 28047,1656 28073,1640 28100,1620 28129,1601 28155,1579 28176,1553 28193,1533 28205,1514 28214,1490 28222,1468 28227,1446 28227,1422 28227,1396 28222,1369 28207,1347 28190,1318 28163,1296 28131,1281 28107,1269 28081,1262 28054,1257 28030,1255 28006,1252 27982,1252 27991,1262 27999,1272 28003,1284 28013,1303 28020,1323 28020,1345 28020,1364 28015,1386 28006,1403 27994,1420 27974,1434 27955,1449 27924,1468 27897,1483 27868,1500 27817,1526 27769,1555 27721,1582 27696,1595 27671,1610 27646,1624 27623,1638 27599,1652 27576,1666 27542,1688 27506,1710 27474,1736 27448,1760 27426,1784 27409,1813 27395,1838 27388,1867 27385,1896 27383,1922 27385,1951 27392,1975 27402,1999 27414,2021 27431,2040 27455,2074 27487,2103 27530,2130 L 27532,2130 C 27566,2110 27600,2091 27634,2074 27668,2055 27701,2038 27738,2019 27743,2016 27750,2011 27755,2009 27728,1992 27709,1982 27689,1968 27677,1961 27665,1954 27653,1944 27641,1937 27629,1927 27619,1920 L 27615,1915 C 27612,1912 27612,1910 27612,1908 27615,1903 27617,1898 27619,1896 Z"/>
     </g>
    </g>
    <g class="com.sun.star.drawing.ClosedBezierShape">
     <g id="id6">
      <rect class="BoundingBox" stroke="none" fill="none" x="27377" y="1676" width="856" height="892"/>
      <path fill="rgb(255,255,255)" stroke="none" d="M 27989,1916 C 27965,1933 27933,1950 27904,1967 27839,2003 27793,2027 27747,2054 27697,2081 27646,2109 27588,2143 27561,2158 27535,2172 27508,2192 27482,2212 27455,2234 27433,2260 27419,2280 27404,2301 27397,2323 27388,2345 27383,2369 27383,2391 27383,2417 27390,2444 27402,2465 27419,2494 27448,2516 27479,2531 27503,2543 27528,2550 27554,2555 27578,2560 27605,2562 27629,2560 27619,2550 27612,2540 27605,2528 27595,2511 27590,2490 27590,2468 27588,2449 27593,2429 27602,2412 27615,2393 27636,2379 27656,2364 27685,2345 27714,2330 27740,2313 27791,2287 27839,2260 27887,2231 27936,2205 27984,2177 28035,2146 28069,2124 28102,2102 28134,2076 28160,2054 28185,2027 28202,1998 28214,1974 28222,1945 28224,1919 28227,1890 28227,1861 28217,1837 28210,1812 28195,1793 28181,1774 28153,1738 28124,1711 28078,1682 L 28078,1684 C 28044,1701 28008,1721 27974,1738 27941,1757 27907,1776 27873,1793 27866,1798 27861,1800 27854,1803 27883,1820 27902,1832 27921,1844 27933,1851 27945,1861 27957,1868 27967,1875 27979,1885 27991,1895 27991,1895 27994,1897 27996,1899 27996,1899 27996,1902 27996,1904 27996,1909 27994,1914 27989,1916 Z"/>
      <path fill="none" stroke="rgb(255,255,255)" stroke-width="11" stroke-linejoin="round" stroke-linecap="round" d="M 27989,1916 C 27965,1933 27933,1950 27904,1967 27839,2003 27793,2027 27747,2054 27697,2081 27646,2109 27588,2143 27561,2158 27535,2172 27508,2192 27482,2212 27455,2234 27433,2260 27419,2280 27404,2301 27397,2323 27388,2345 27383,2369 27383,2391 27383,2417 27390,2444 27402,2465 27419,2494 27448,2516 27479,2531 27503,2543 27528,2550 27554,2555 27578,2560 27605,2562 27629,2560 27619,2550 27612,2540 27605,2528 27595,2511 27590,2490 27590,2468 27588,2449 27593,2429 27602,2412 27615,2393 27636,2379 27656,2364 27685,2345 27714,2330 27740,2313 27791,2287 27839,2260 27887,2231 27936,2205 27984,2177 28035,2146 28069,2124 28102,2102 28134,2076 28160,2054 28185,2027 28202,1998 28214,1974 28222,1945 28224,1919 28227,1890 28227,1861 28217,1837 28210,1812 28195,1793 28181,1774 28153,1738 28124,1711 28078,1682 L 28078,1684 C 28044,1701 28008,1721 27974,1738 27941,1757 27907,1776 27873,1793 27866,1798 27861,1800 27854,1803 27883,1820 27902,1832 27921,1844 27933,1851 27945,1861 27957,1868 27967,1875 27979,1885 27991,1895 27991,1895 27994,1897 27996,1899 L 27996,1904 C 27996,1909 27994,1914 27989,1916 Z"/>
     </g>
    </g>
    <g class="com.sun.star.drawing.ClosedBezierShape">
     <g id="id7">
      <rect class="BoundingBox" stroke="none" fill="none" x="27840" y="2164" width="394" height="404"/>
      <path fill="rgb(255,255,255)" stroke="none" d="M 28070,2170 C 28082,2177 28091,2184 28101,2192 28130,2211 28156,2233 28176,2259 28193,2279 28205,2300 28214,2322 28222,2344 28227,2368 28227,2390 28227,2416 28222,2443 28207,2464 28190,2493 28164,2515 28132,2531 28108,2543 28082,2550 28055,2555 28031,2560 28007,2562 27983,2560 27992,2550 28000,2540 28004,2527 28014,2510 28021,2489 28021,2467 28021,2448 28016,2428 28007,2411 27995,2392 27975,2378 27956,2363 27925,2344 27898,2329 27869,2312 27862,2310 27854,2305 27846,2300 27856,2295 27867,2288 27876,2283 27915,2262 27954,2240 27995,2218 28014,2206 28033,2194 28053,2182 28060,2177 28065,2175 28070,2170 Z"/>
      <path fill="none" stroke="rgb(255,255,255)" stroke-width="11" stroke-linejoin="round" stroke-linecap="round" d="M 28070,2170 C 28082,2177 28091,2184 28101,2192 28130,2211 28156,2233 28176,2259 28193,2279 28205,2300 28214,2322 28222,2344 28227,2368 28227,2390 28227,2416 28222,2443 28207,2464 28190,2493 28164,2515 28132,2531 28108,2543 28082,2550 28055,2555 28031,2560 28007,2562 27983,2560 27992,2550 28000,2540 28004,2527 28014,2510 28021,2489 28021,2467 28021,2448 28016,2428 28007,2411 27995,2392 27975,2378 27956,2363 27925,2344 27898,2329 27869,2312 27862,2310 27854,2305 27846,2300 27856,2295 27867,2288 27876,2283 27915,2262 27954,2240 27995,2218 28014,2206 28033,2194 28053,2182 28060,2177 28065,2175 28070,2170 Z"/>
     </g>
    </g>
    <g class="com.sun.star.drawing.ClosedBezierShape">
     <g id="id8">
      <rect class="BoundingBox" stroke="none" fill="none" x="27693" y="2468" width="227" height="227"/>
      <path fill="rgb(255,255,255)" stroke="none" d="M 27913,2580 C 27913,2605 27900,2634 27881,2656 27861,2676 27832,2688 27805,2688 27776,2688 27750,2676 27730,2656 27709,2636 27699,2607 27699,2580 27699,2551 27709,2525 27730,2506 27750,2486 27776,2474 27805,2474 27832,2474 27861,2484 27881,2506 27900,2525 27913,2556 27913,2580 Z"/>
      <path fill="none" stroke="rgb(255,255,255)" stroke-width="11" stroke-linejoin="round" stroke-linecap="round" d="M 27913,2580 C 27913,2605 27900,2634 27881,2656 27861,2676 27832,2688 27805,2688 27776,2688 27750,2676 27730,2656 27709,2636 27699,2607 27699,2580 27699,2551 27709,2525 27730,2506 27750,2486 27776,2474 27805,2474 27832,2474 27861,2484 27881,2506 27900,2525 27913,2556 27913,2580 Z"/>
     </g>
    </g>
    <g class="com.sun.star.drawing.ClosedBezierShape">
     <g id="id9">
      <rect class="BoundingBox" stroke="none" fill="none" x="27693" y="1118" width="227" height="227"/>
      <path fill="rgb(255,255,255)" stroke="none" d="M 27913,1231 C 27913,1290 27864,1338 27805,1338 27747,1338 27699,1290 27699,1231 27699,1173 27747,1124 27805,1124 27864,1124 27913,1173 27913,1231 Z"/>
      <path fill="none" stroke="rgb(255,255,255)" stroke-width="11" stroke-linejoin="round" stroke-linecap="round" d="M 27913,1231 C 27913,1290 27864,1338 27805,1338 27747,1338 27699,1290 27699,1231 27699,1173 27747,1124 27805,1124 27864,1124 27913,1173 27913,1231 Z"/>
     </g>
    </g>
   </g>
  </g>
 </g>
</svg>